# This file uses centimeters as units for non-parametric coordinates.

mtllib building.mtl
g default
v -0.500000 3.059337 0.500000
v 0.500000 3.059337 0.500000
v -0.500000 5.059337 0.500000
v 0.500000 5.059337 0.500000
v -0.500000 5.059337 -0.500000
v 0.500000 5.059337 -0.500000
v -0.500000 3.059337 -0.500000
v 0.500000 3.059337 -0.500000
vt -0.257760 0.250000
vt -0.007760 0.250000
vt -0.257760 0.500000
vt -0.007760 0.500000
vt -0.257760 0.750000
vt -0.007760 0.750000
vt -0.257760 1.000000
vt -0.007760 1.000000
vt 0.000000 0.000000
vt 0.000000 0.000000
vt 0.000000 1.000000
vt 0.000000 1.000000
vt 1.000000 1.000000
vt 1.000000 1.000000
vt 1.000000 0.000000
vt 1.000000 0.000000
vn 0.000000 0.000000 1.000000
vn 0.000000 0.000000 1.000000
vn 0.000000 0.000000 1.000000
vn 0.000000 0.000000 1.000000
vn 0.000000 1.000000 0.000000
vn 0.000000 1.000000 0.000000
vn 0.000000 1.000000 0.000000
vn 0.000000 1.000000 0.000000
vn 0.000000 0.000000 -1.000000
vn 0.000000 0.000000 -1.000000
vn 0.000000 0.000000 -1.000000
vn 0.000000 0.000000 -1.000000
vn 0.000000 -1.000000 0.000000
vn 0.000000 -1.000000 0.000000
vn 0.000000 -1.000000 0.000000
vn 0.000000 -1.000000 0.000000
vn 1.000000 0.000000 0.000000
vn 1.000000 0.000000 0.000000
vn 1.000000 0.000000 0.000000
vn 1.000000 0.000000 0.000000
vn -1.000000 0.000000 0.000000
vn -1.000000 0.000000 0.000000
vn -1.000000 0.000000 0.000000
vn -1.000000 0.000000 0.000000
g pCube1
usemtl rock:Material
f 1/9/1 2/10/2 4/11/3 3/12/4
f 3/1/5 4/2/6 6/4/7 5/3/8
f 5/13/9 6/14/10 8/15/11 7/16/12
f 7/5/13 8/6/14 2/8/15 1/7/16
f 2/10/17 8/15/18 6/14/19 4/11/20
f 7/16/21 1/9/22 3/12/23 5/13/24
